<svg width="54" height="25" viewBox="0 0 54 25" fill="none" xmlns="http://www.w3.org/2000/svg">
<path d="M11.5827 9.57772V2.65947C11.581 2.38857 11.5238 2.12066 11.4143 1.87108C11.3047 1.62151 11.1451 1.39518 10.9444 1.20507C10.7438 1.01497 10.5061 0.864811 10.245 0.763227C9.98396 0.661644 9.70461 0.610627 9.423 0.613092H9.01265C8.73104 0.610627 8.45168 0.661644 8.19061 0.763227C7.92953 0.864811 7.69187 1.01497 7.49123 1.20507C7.29059 1.39518 7.13093 1.62151 7.02139 1.87108C6.91186 2.12066 6.8546 2.38857 6.85291 2.65947V20.9772C6.8546 21.2481 6.91186 21.516 7.02139 21.7656C7.13093 22.0152 7.29059 22.2415 7.49123 22.4316C7.69187 22.6217 7.92953 22.7719 8.19061 22.8735C8.45168 22.9751 8.73104 23.0261 9.01265 23.0236H9.423C9.70461 23.0261 9.98396 22.9751 10.245 22.8735C10.5061 22.7719 10.7438 22.6217 10.9444 22.4316C11.1451 22.2415 11.3047 22.0152 11.4143 21.7656C11.5238 21.516 11.581 21.2481 11.5827 20.9772V14.0611H16.2953V9.57772H11.5827Z" fill="#60A697"/>
<path d="M34.273 3.11652H19.7271C18.5393 3.11652 17.5674 4.21347 17.5674 5.56595V16.7619C17.5674 18.1143 18.5306 19.2113 19.7271 19.2113H23.0207V22.5354C23.0207 23.6801 24.1611 24.6129 25.5671 24.6129H33.8799C35.2859 24.6129 36.4262 23.6863 36.4262 22.5354V5.56595C36.4262 4.21347 35.4608 3.11652 34.273 3.11652ZM33.8648 4.5708H34.273C34.5753 4.5708 34.9209 4.99671 34.9209 5.56595V17.8089C34.7068 17.7746 34.4901 17.7572 34.273 17.757H30.8973V4.5708H33.8648ZM29.3855 4.5708V17.757H24.6146V4.5708H29.3855ZM19.9323 17.757H19.7163C19.414 17.757 19.0684 17.3415 19.0684 16.7619V5.56595C19.0684 4.99671 19.4053 4.5708 19.7163 4.5708H23.092V17.757H19.9323ZM34.9144 22.5354C34.9144 22.8262 34.4717 23.1586 33.8799 23.1586H25.5671C24.9753 23.1586 24.5325 22.8325 24.5325 22.5354V19.3422H34.9144V22.5354Z" fill="#60A697"/>
<path d="M4.71684 5.10681H4.51383C4.2304 5.10678 3.95832 5.21394 3.75629 5.40517C3.55426 5.5964 3.43849 5.85635 3.43396 6.12896V17.5285C3.43793 17.8014 3.55346 18.0619 3.75554 18.2536C3.95763 18.4453 4.23003 18.5527 4.51383 18.5527H4.71684C5.00064 18.5527 5.27305 18.4453 5.47513 18.2536C5.67722 18.0619 5.79274 17.8014 5.79671 17.5285V6.11858C5.78939 5.84778 5.6724 5.59046 5.47067 5.40145C5.26894 5.21245 4.99844 5.10672 4.71684 5.10681Z" fill="#60A697"/>
<path d="M1.28289 9.5777H1.07987C0.796071 9.57767 0.523668 9.68512 0.321582 9.87679C0.119496 10.0685 0.00397319 10.329 0 10.6019V13.0368C0.00397319 13.3098 0.119496 13.5703 0.321582 13.7619C0.523668 13.9536 0.796071 14.0611 1.07987 14.061H1.28289C1.56669 14.0611 1.83909 13.9536 2.04117 13.7619C2.24326 13.5703 2.35878 13.3098 2.36276 13.0368V10.6019C2.35878 10.329 2.24326 10.0685 2.04117 9.87679C1.83909 9.68512 1.56669 9.57767 1.28289 9.5777Z" fill="#60A697"/>
<path d="M52.9201 9.5777H52.7171C52.4333 9.57767 52.1609 9.68512 51.9588 9.87679C51.7567 10.0685 51.6412 10.329 51.6372 10.6019V13.0368C51.6412 13.3098 51.7567 13.5703 51.9588 13.7619C52.1609 13.9536 52.4333 14.0611 52.7171 14.061H52.9201C53.2039 14.0611 53.4763 13.9536 53.6784 13.7619C53.8805 13.5703 53.996 13.3098 54 13.0368V10.6019C53.996 10.329 53.8805 10.0685 53.6784 9.87679C53.4763 9.68512 53.2039 9.57767 52.9201 9.5777Z" fill="#60A697"/>
<path d="M49.4988 5.10681H49.2829C48.9994 5.10678 48.7274 5.21394 48.5253 5.40517C48.3233 5.5964 48.2075 5.85635 48.203 6.12896V17.5285C48.207 17.8014 48.3225 18.0619 48.5246 18.2536C48.7267 18.4453 48.9991 18.5527 49.2829 18.5527H49.4988C49.7826 18.5527 50.055 18.4453 50.2571 18.2536C50.4592 18.0619 50.5747 17.8014 50.5787 17.5285V6.11858C50.5714 5.84778 50.4544 5.59046 50.2527 5.40145C50.0509 5.21245 49.7804 5.10672 49.4988 5.10681Z" fill="#60A697"/>
<path d="M44.9787 0.613066H44.5705C44.2889 0.610601 44.0096 0.661618 43.7485 0.763202C43.4874 0.864785 43.2497 1.01494 43.0491 1.20505C42.8485 1.39516 42.6888 1.62148 42.5793 1.87106C42.4697 2.12063 42.4125 2.38854 42.4108 2.65945V9.57769H37.7047V14.061H42.4173V20.9772C42.419 21.2481 42.4762 21.516 42.5857 21.7656C42.6953 22.0152 42.8549 22.2415 43.0556 22.4316C43.2562 22.6217 43.4939 22.7719 43.755 22.8734C44.016 22.975 44.2954 23.026 44.577 23.0236H44.9852C45.2668 23.026 45.5462 22.975 45.8072 22.8734C46.0683 22.7719 46.306 22.6217 46.5066 22.4316C46.7073 22.2415 46.8669 22.0152 46.9764 21.7656C47.086 21.516 47.1432 21.2481 47.1449 20.9772V2.65945C47.1432 2.38801 47.0858 2.11959 46.9758 1.8696C46.8659 1.61961 46.7057 1.39301 46.5043 1.20282C46.303 1.01263 46.0646 0.862614 45.8027 0.761401C45.5409 0.660188 45.2609 0.609775 44.9787 0.613066Z" fill="#60A697"/>
</svg>
