<svg width="53" height="53" viewBox="0 0 53 53" fill="none" xmlns="http://www.w3.org/2000/svg">
<g filter="url(#filter0_d)">
<circle cx="26.5" cy="22.5" r="22.5" fill="#FD8B3F"/>
</g>
<g clip-path="url(#clip0)">
<path d="M16.7575 19.6119C16.5792 19.0592 16.8821 18.4677 17.4348 18.2894L31.4335 13.7735C31.9861 13.5952 32.5776 13.8982 32.7559 14.4508L33.0785 15.4507C33.2568 16.0034 32.9538 16.5949 32.4011 16.7732L26.9017 18.5473L29.1596 25.5466L34.6591 23.7725C35.2118 23.5942 35.8033 23.8972 35.9816 24.4499L36.3041 25.4498C36.4824 26.0025 36.1795 26.594 35.6268 26.7723L21.6281 31.2882C21.0755 31.4665 20.484 31.1635 20.3057 30.6108L19.9831 29.6109C19.8048 29.0582 20.1078 28.4667 20.6605 28.2884L26.1599 26.5143L23.902 19.515L18.4025 21.2891C17.8498 21.4674 17.2583 21.1645 17.08 20.6118L16.7575 19.6119ZM17.6283 15.4671C17.45 14.9144 17.753 14.3229 18.3056 14.1446L28.3047 10.919C28.8573 10.7407 29.4488 11.0436 29.6271 11.5963L30.111 13.0962L18.1121 16.9669L17.6283 15.4671ZM22.9506 31.9655L34.9495 28.0947L35.4333 29.5946C35.6116 30.1473 35.3086 30.7388 34.756 30.917L24.7569 34.1427C24.2042 34.321 23.6128 34.018 23.4345 33.4654L22.9506 31.9655ZM21.1602 11.0158C21.0713 10.7405 21.2235 10.4434 21.4988 10.3546L23.4986 9.70947C23.774 9.62064 24.071 9.77277 24.1599 10.0481L24.4824 11.048L21.4827 12.0157L21.1602 11.0158ZM28.5792 34.0136L31.5789 33.0459L31.9014 34.0458C31.9903 34.3212 31.8381 34.6182 31.5628 34.7071L29.563 35.3522C29.2876 35.441 28.9906 35.2889 28.9017 35.0135L28.5792 34.0136Z" fill="white"/>
</g>
<defs>
<filter id="filter0_d" x="0" y="0" width="53" height="53" filterUnits="userSpaceOnUse" color-interpolation-filters="sRGB">
<feFlood flood-opacity="0" result="BackgroundImageFix"/>
<feColorMatrix in="SourceAlpha" type="matrix" values="0 0 0 0 0 0 0 0 0 0 0 0 0 0 0 0 0 0 127 0"/>
<feOffset dy="4"/>
<feGaussianBlur stdDeviation="2"/>
<feColorMatrix type="matrix" values="0 0 0 0 0 0 0 0 0 0 0 0 0 0 0 0 0 0 0.25 0"/>
<feBlend mode="normal" in2="BackgroundImageFix" result="effect1_dropShadow"/>
<feBlend mode="normal" in="SourceGraphic" in2="effect1_dropShadow" result="shape"/>
</filter>
<clipPath id="clip0">
<rect width="26.2661" height="26.2661" fill="white" transform="matrix(0.307016 0.951704 0.951704 -0.307016 10 14.0642)"/>
</clipPath>
</defs>
</svg>
