<svg width="64" height="64" viewBox="0 0 64 64" fill="none" xmlns="http://www.w3.org/2000/svg">
<g filter="url(#filter0_d)">
<circle cx="32" cy="28" r="28" fill="#19C0F2"/>
</g>
<path d="M41.9555 38.5778V36.0889C41.9555 34.7687 41.4311 33.5026 40.4976 32.569C39.5641 31.6355 38.298 31.1111 36.9778 31.1111H27.0222C25.702 31.1111 24.4359 31.6355 23.5024 32.569C22.5689 33.5026 22.0444 34.7687 22.0444 36.0889V38.5778" stroke="white" stroke-width="2" stroke-linecap="round" stroke-linejoin="round"/>
<path d="M32 26.1333C34.7491 26.1333 36.9778 23.9047 36.9778 21.1555C36.9778 18.4064 34.7491 16.1777 32 16.1777C29.2508 16.1777 27.0222 18.4064 27.0222 21.1555C27.0222 23.9047 29.2508 26.1333 32 26.1333Z" stroke="white" stroke-width="2" stroke-linecap="round" stroke-linejoin="round"/>
<defs>
<filter id="filter0_d" x="0" y="0" width="64" height="64" filterUnits="userSpaceOnUse" color-interpolation-filters="sRGB">
<feFlood flood-opacity="0" result="BackgroundImageFix"/>
<feColorMatrix in="SourceAlpha" type="matrix" values="0 0 0 0 0 0 0 0 0 0 0 0 0 0 0 0 0 0 127 0"/>
<feOffset dy="4"/>
<feGaussianBlur stdDeviation="2"/>
<feColorMatrix type="matrix" values="0 0 0 0 0 0 0 0 0 0 0 0 0 0 0 0 0 0 0.25 0"/>
<feBlend mode="normal" in2="BackgroundImageFix" result="effect1_dropShadow"/>
<feBlend mode="normal" in="SourceGraphic" in2="effect1_dropShadow" result="shape"/>
</filter>
</defs>
</svg>
